<svg width="136" height="50" viewBox="0 0 136 50" fill="none" xmlns="http://www.w3.org/2000/svg">
<path d="M68.6821 9.08894C70.2053 9.08894 71.5364 9.39084 72.6754 9.99464C73.8144 10.5984 74.6927 11.4493 75.3102 12.5471C75.9414 13.6312 76.2571 14.8868 76.2571 16.314C76.2571 17.7274 75.9414 18.9831 75.3102 20.0809C74.6927 21.1787 73.8075 22.0296 72.6548 22.6334C71.5158 23.2372 70.1916 23.5391 68.6821 23.5391H63.2684V9.08894H68.6821ZM68.4556 20.4926C69.7867 20.4926 70.8228 20.1289 71.5639 19.4016C72.3049 18.6743 72.6754 17.6451 72.6754 16.314C72.6754 14.9829 72.3049 13.9468 71.5639 13.2058C70.8228 12.4647 69.7867 12.0942 68.4556 12.0942H66.7883V20.4926H68.4556ZM85.5933 23.5391L82.588 18.0842H81.744V23.5391H78.2241V9.08894H84.1318C85.2708 9.08894 86.2383 9.28792 87.0342 9.68588C87.8438 10.0838 88.4476 10.6328 88.8456 11.3326C89.2436 12.0188 89.4425 12.7872 89.4425 13.638C89.4425 14.5986 89.1681 15.4563 88.6192 16.2111C88.084 16.9658 87.2881 17.501 86.2314 17.8166L89.566 23.5391H85.5933ZM81.744 15.5936H83.926C84.5709 15.5936 85.0512 15.4357 85.3669 15.1201C85.6962 14.8045 85.8609 14.3585 85.8609 13.7821C85.8609 13.2332 85.6962 12.801 85.3669 12.4853C85.0512 12.1697 84.5709 12.0119 83.926 12.0119H81.744V15.5936ZM95.172 11.909V14.8319H99.8858V17.5491H95.172V20.719H100.503V23.5391H91.6521V9.08894H100.503V11.909H95.172ZM111.784 20.9866H106.391L105.526 23.5391H101.842L107.07 9.08894H111.146L116.374 23.5391H112.648L111.784 20.9866ZM110.878 18.2695L109.087 12.9794L107.317 18.2695H110.878ZM134.33 9.08894V23.5391H130.81V14.8731L127.578 23.5391H124.738L121.485 14.8525V23.5391H117.965V9.08894H122.123L126.178 19.0929L130.192 9.08894H134.33ZM72.0167 33.1287C72.8538 33.3071 73.5262 33.7257 74.034 34.3844C74.5417 35.0294 74.7956 35.7704 74.7956 36.6075C74.7956 37.8151 74.3702 38.7757 73.5194 39.4893C72.6823 40.1891 71.509 40.5391 69.9995 40.5391H63.2684V26.0889H69.773C71.2414 26.0889 72.3872 26.4251 73.2106 27.0976C74.0477 27.77 74.4662 28.6825 74.4662 29.8353C74.4662 30.6861 74.2398 31.3928 73.7869 31.9554C73.3478 32.5181 72.7577 32.9092 72.0167 33.1287ZM66.7883 31.9349H69.0937C69.6701 31.9349 70.1092 31.8114 70.4111 31.5643C70.7268 31.3036 70.8846 30.9262 70.8846 30.4322C70.8846 29.9382 70.7268 29.5608 70.4111 29.3001C70.1092 29.0393 69.6701 28.909 69.0937 28.909H66.7883V31.9349ZM69.3819 37.6984C69.972 37.6984 70.4249 37.5681 70.7405 37.3073C71.0698 37.0329 71.2345 36.6418 71.2345 36.134C71.2345 35.6263 71.063 35.2283 70.7199 34.9402C70.3906 34.652 69.9308 34.5079 69.3408 34.5079H66.7883V37.6984H69.3819ZM83.6711 40.6832C82.3125 40.6832 81.0637 40.3675 79.9247 39.7363C78.7995 39.105 77.9006 38.2268 77.2282 37.1015C76.5695 35.9625 76.2402 34.6863 76.2402 33.2728C76.2402 31.8594 76.5695 30.59 77.2282 29.4647C77.9006 28.3395 78.7995 27.4612 79.9247 26.83C81.0637 26.1987 82.3125 25.8831 83.6711 25.8831C85.0296 25.8831 86.2715 26.1987 87.3968 26.83C88.5358 27.4612 89.4278 28.3395 90.0728 29.4647C90.7315 30.59 91.0608 31.8594 91.0608 33.2728C91.0608 34.6863 90.7315 35.9625 90.0728 37.1015C89.4141 38.2268 88.5221 39.105 87.3968 39.7363C86.2715 40.3675 85.0296 40.6832 83.6711 40.6832ZM83.6711 37.472C84.8238 37.472 85.7432 37.0878 86.4294 36.3193C87.1292 35.5508 87.4792 34.5353 87.4792 33.2728C87.4792 31.9966 87.1292 30.9811 86.4294 30.2264C85.7432 29.4579 84.8238 29.0736 83.6711 29.0736C82.5046 29.0736 81.5715 29.451 80.8716 30.2058C80.1855 30.9605 79.8424 31.9829 79.8424 33.2728C79.8424 34.5491 80.1855 35.5714 80.8716 36.3399C81.5715 37.0946 82.5046 37.472 83.6711 37.472ZM99.853 40.6832C98.4945 40.6832 97.2457 40.3675 96.1067 39.7363C94.9814 39.105 94.0826 38.2268 93.4101 37.1015C92.7515 35.9625 92.4221 34.6863 92.4221 33.2728C92.4221 31.8594 92.7515 30.59 93.4101 29.4647C94.0826 28.3395 94.9814 27.4612 96.1067 26.83C97.2457 26.1987 98.4945 25.8831 99.853 25.8831C101.212 25.8831 102.453 26.1987 103.579 26.83C104.718 27.4612 105.61 28.3395 106.255 29.4647C106.913 30.59 107.243 31.8594 107.243 33.2728C107.243 34.6863 106.913 35.9625 106.255 37.1015C105.596 38.2268 104.704 39.105 103.579 39.7363C102.453 40.3675 101.212 40.6832 99.853 40.6832ZM99.853 37.472C101.006 37.472 101.925 37.0878 102.611 36.3193C103.311 35.5508 103.661 34.5353 103.661 33.2728C103.661 31.9966 103.311 30.9811 102.611 30.2264C101.925 29.4579 101.006 29.0736 99.853 29.0736C98.6866 29.0736 97.7534 29.451 97.0536 30.2058C96.3674 30.9605 96.0243 31.9829 96.0243 33.2728C96.0243 34.5491 96.3674 35.5714 97.0536 36.3399C97.7534 37.0946 98.6866 37.472 99.853 37.472ZM117.579 40.5391L112.721 34.158V40.5391H109.201V26.0889H112.721V32.4289L117.538 26.0889H121.675L116.076 33.1699L121.881 40.5391H117.579ZM128.782 40.6832C127.725 40.6832 126.779 40.5116 125.941 40.1685C125.104 39.8255 124.432 39.3177 123.924 38.6453C123.43 37.9729 123.169 37.1632 123.142 36.2164H126.888C126.943 36.7516 127.128 37.1632 127.444 37.4514C127.76 37.7259 128.171 37.8631 128.679 37.8631C129.201 37.8631 129.612 37.7465 129.914 37.5132C130.216 37.2662 130.367 36.93 130.367 36.5046C130.367 36.1478 130.244 35.8527 129.997 35.6194C129.763 35.3861 129.468 35.194 129.111 35.0431C128.768 34.8921 128.274 34.7206 127.629 34.5285C126.696 34.2403 125.935 33.9521 125.344 33.6639C124.754 33.3758 124.247 32.9503 123.821 32.3877C123.396 31.8251 123.183 31.0909 123.183 30.1852C123.183 28.8404 123.67 27.7906 124.645 27.0358C125.619 26.2673 126.888 25.8831 128.453 25.8831C130.045 25.8831 131.328 26.2673 132.302 27.0358C133.276 27.7906 133.798 28.8472 133.866 30.2058H130.058C130.031 29.7392 129.859 29.3756 129.544 29.1148C129.228 28.8404 128.823 28.7031 128.329 28.7031C127.904 28.7031 127.561 28.8198 127.3 29.0531C127.039 29.2726 126.909 29.5951 126.909 30.0205C126.909 30.4871 127.128 30.8508 127.568 31.1115C128.007 31.3722 128.693 31.6535 129.626 31.9554C130.559 32.2711 131.314 32.573 131.89 32.8611C132.48 33.1493 132.988 33.5679 133.413 34.1168C133.839 34.6657 134.052 35.3724 134.052 36.237C134.052 37.0603 133.839 37.8082 133.413 38.4806C133.002 39.1531 132.398 39.6882 131.602 40.0862C130.806 40.4842 129.866 40.6832 128.782 40.6832Z" fill="#246B73"/>
<path d="M36.2687 0.194724C35.2545 0.0662602 34.2241 0 33.1774 0H29.8698V6.84508H33.1774C43.0407 6.84508 51.0271 14.8761 50.9554 24.7583C50.8838 34.5635 42.7568 42.4065 32.9516 42.4065H21.1221V35.1152H32.001V28.2701H14.277V41.6722C9.96472 40.2875 6.84508 36.2457 6.84508 31.4709C6.84508 30.1781 7.07361 28.9381 7.49416 27.7901C9.00598 23.6549 13.0357 20.9788 17.4386 20.9788H33.1774C35.1882 20.9788 36.8204 22.611 36.8204 24.6244C36.8204 26.6379 35.1882 28.2701 33.1774 28.2701H33.0408V35.1152H33.1774C34.4188 35.1152 35.6061 34.9015 36.7108 34.5053C40.7649 33.0544 43.6655 29.1775 43.6655 24.6244C43.6655 19.9065 40.5526 15.916 36.2687 14.5975C35.291 14.2946 34.2525 14.1337 33.1774 14.1337H17.6996V6.84508H28.8299V0H10.8545V15.2412C4.4827 17.874 0 24.1485 0 31.4722C0 40.0482 6.14732 47.1881 14.277 48.7229C14.4231 48.7513 14.5705 48.7783 14.7192 48.8C15.6442 48.9528 16.5921 49.0298 17.559 49.0298H33.3126C33.364 49.0298 33.4168 49.0298 33.4695 49.0271H33.5804L33.6439 49.0244C34.6811 49.015 35.7061 49.1326 36.7108 48.996C42.6743 48.1387 47.9467 45.1475 51.7276 40.8176C55.5098 36.4904 57.8019 30.8245 57.8019 24.6244C57.8005 12.0715 48.4078 1.71059 36.2687 0.194724Z" fill="#2F7C84"/>
</svg>
